<svg width="100" height="5" viewBox="0 0 100 5" xmlns="http://www.w3.org/2000/svg"><g stroke="#000" fill="none" fill-rule="evenodd"><path d="M1.447 2.15l.053-.06C3.35.03 7.46-.04 9.44 1.957l.328.33c1.968 1.984 6.05 1.93 7.915-.107l.107-.118c1.875-2.047 5.985-2.09 7.94-.082l.274.282c1.943 1.996 6.024 1.967 7.914-.055l.16-.172M34.08 2.206l.16-.172-.115.116c1.796-2.087 5.91-2.212 7.94-.24l.434.422c2.016 1.96 6.1 1.85 7.914-.212 1.823-2.074 5.935-2.17 7.94-.188l.38.377c1.994 1.97 6.076 1.89 7.916-.16l.053-.06c1.85-2.06 5.96-2.13 7.94-.135l.328.33c1.97 1.984 6.05 1.93 7.915-.107l.107-.116c1.875-2.047 5.985-2.09 7.94-.083l.274.28c1.944 1.997 6.024 1.97 7.915-.054"/></g></svg>